<svg xmlns="http://www.w3.org/2000/svg" viewBox="0 0 128 128" role="img" aria-label="RNG Dice">
  <defs>
    <linearGradient id="face" x1="28" y1="18" x2="102" y2="110" gradientUnits="userSpaceOnUse">
      <stop offset="0" stop-color="#f8fbff"/>
      <stop offset="0.5" stop-color="#c9f0ff"/>
      <stop offset="1" stop-color="#7dd3fc"/>
    </linearGradient>
    <linearGradient id="side" x1="74" y1="34" x2="108" y2="91" gradientUnits="userSpaceOnUse">
      <stop offset="0" stop-color="#38bdf8"/>
      <stop offset="1" stop-color="#2563eb"/>
    </linearGradient>
    <linearGradient id="bottom" x1="38" y1="78" x2="90" y2="116" gradientUnits="userSpaceOnUse">
      <stop offset="0" stop-color="#93c5fd"/>
      <stop offset="1" stop-color="#1d4ed8"/>
    </linearGradient>
    <radialGradient id="glow" cx="50%" cy="50%" r="55%">
      <stop offset="0" stop-color="#67e8f9" stop-opacity="0.55"/>
      <stop offset="1" stop-color="#38bdf8" stop-opacity="0"/>
    </radialGradient>
    <filter id="softShadow" x="-30%" y="-30%" width="160%" height="170%">
      <feDropShadow dx="0" dy="8" stdDeviation="7" flood-color="#020617" flood-opacity="0.45"/>
      <feDropShadow dx="0" dy="0" stdDeviation="4" flood-color="#67e8f9" flood-opacity="0.45"/>
    </filter>
  </defs>
  <circle cx="64" cy="64" r="57" fill="url(#glow)"/>
  <g filter="url(#softShadow)">
    <path d="M28 39 61 21l39 16-33 20Z" fill="#e0f7ff"/>
    <path d="M28 39v45l39 23V57Z" fill="url(#face)"/>
    <path d="M67 57v50l33-24V37Z" fill="url(#side)"/>
    <path d="M28 84 67 107l33-24-33-18Z" fill="url(#bottom)" opacity="0.96"/>
    <path d="M28 39 61 21l39 16v46l-33 24-39-23Z" fill="none" stroke="#0f172a" stroke-width="4" stroke-linejoin="round"/>
    <path d="M28 39 67 57l33-20M67 57v50" fill="none" stroke="#ffffff" stroke-opacity="0.55" stroke-width="2.5" stroke-linecap="round" stroke-linejoin="round"/>
    <g fill="#0f172a" opacity="0.86">
      <circle cx="45" cy="58" r="5.4"/>
      <circle cx="52" cy="83" r="5.4"/>
      <circle cx="73" cy="73" r="5.4"/>
    </g>
    <g fill="#e0f2fe">
      <circle cx="84" cy="57" r="4.5"/>
      <circle cx="84" cy="83" r="4.5"/>
      <circle cx="71" cy="70" r="4.2"/>
    </g>
    <path d="M41 35 61 25l24 10-20 12Z" fill="#ffffff" opacity="0.45"/>
  </g>
  <path d="M33 20c9-7 21-10 35-8M95 28c7 8 11 18 12 30M20 88c5 10 13 18 24 23" fill="none" stroke="#fbbf24" stroke-width="5" stroke-linecap="round" opacity="0.9"/>
</svg>
